<svg width="195" height="36" viewBox="0 0 195 36" fill="none" xmlns="http://www.w3.org/2000/svg">
<path fill-rule="evenodd" clip-rule="evenodd" d="M27.8333 17C27.8333 24.0877 22.0877 29.8333 15 29.8333C7.91234 29.8333 2.16666 24.0877 2.16666 17C2.16666 9.9123 7.91234 4.16666 15 4.16666C22.0877 4.16666 27.8333 9.9123 27.8333 17ZM30 17C30 25.2843 23.2843 32 15 32C6.71573 32 0 25.2843 0 17C0 8.71573 6.71573 2 15 2C23.2843 2 30 8.71573 30 17ZM23.2759 10.2759C23.2759 11.1329 22.5812 11.8276 21.7242 11.8276C20.8672 11.8276 20.1725 11.1329 20.1725 10.2759C20.1725 9.4189 20.8672 8.72418 21.7242 8.72418C22.5812 8.72418 23.2759 9.4189 23.2759 10.2759ZM10.4879 18.209C11.1556 20.7009 13.717 22.1797 16.2089 21.512C18.7008 20.8443 20.1796 18.2829 19.5119 15.791C18.8442 13.2991 16.2828 11.8203 13.7909 12.488C11.299 13.1557 9.82015 15.7171 10.4879 18.209ZM8.39503 18.7698C9.37244 22.4175 13.1219 24.5823 16.7696 23.6049C20.4174 22.6274 22.5821 18.878 21.6047 15.2302C20.6273 11.5825 16.8779 9.4177 13.2301 10.3952C9.58236 11.3726 7.41762 15.122 8.39503 18.7698Z" fill="url(#paint0_linear_39_107)"/>
<path d="M37.6 6.71H54.34V9.95H47.92V26H44.02V9.95H37.6V6.71ZM54.1377 12.5H57.9177V14.51C58.7177 13.17 59.9277 12.5 61.5477 12.5H63.1377V15.74H61.6377C60.0577 15.74 59.0577 16.13 58.6377 16.91C58.2177 17.67 58.0077 19.33 58.0077 21.89V26H54.1377V12.5ZM65.1201 22.28C65.1201 19.32 68.3301 17.68 74.7501 17.36H75.0201V17.15C75.0201 15.75 74.1201 15.05 72.3201 15.05C71.5601 15.05 70.9601 15.17 70.5201 15.41C70.1001 15.65 69.8601 15.89 69.8001 16.13L69.7101 16.49H65.7801C65.7801 16.37 65.8001 16.22 65.8401 16.04C65.8801 15.84 66.0301 15.5 66.2901 15.02C66.5501 14.52 66.8901 14.08 67.3101 13.7C67.7301 13.32 68.3801 12.98 69.2601 12.68C70.1401 12.36 71.1701 12.2 72.3501 12.2C74.4701 12.2 76.0701 12.64 77.1501 13.52C78.2501 14.38 78.8001 15.58 78.8001 17.12L78.8301 21.05V21.8C78.8301 22.16 78.8801 22.41 78.9801 22.55C79.1001 22.69 79.3101 22.76 79.6101 22.76H80.0001V26H79.5801C78.3601 26 77.4301 25.89 76.7901 25.67C76.1501 25.43 75.6901 25 75.4101 24.38C74.3501 25.66 72.6801 26.3 70.4001 26.3C68.6401 26.3 67.3201 25.92 66.4401 25.16C65.5601 24.4 65.1201 23.44 65.1201 22.28ZM69.0801 22.19C69.0801 22.59 69.2701 22.9 69.6501 23.12C70.0301 23.34 70.5101 23.46 71.0901 23.48C71.1301 23.48 71.1701 23.48 71.2101 23.48C72.1301 23.48 72.9901 23.22 73.7901 22.7C74.6101 22.18 75.0201 21.45 75.0201 20.51V19.73C74.2201 19.79 73.5701 19.85 73.0701 19.91C72.5901 19.97 71.9901 20.08 71.2701 20.24C70.5501 20.4 70.0001 20.65 69.6201 20.99C69.2601 21.31 69.0801 21.71 69.0801 22.19ZM84.805 12.5L88.705 21.95L92.635 12.5H96.685L90.625 26H86.785L80.755 12.5H84.805ZM99.5413 14.15C100.821 12.85 102.581 12.2 104.821 12.2C107.021 12.2 108.731 12.85 109.951 14.15C111.191 15.43 111.811 17.14 111.811 19.28C111.811 19.64 111.791 20.01 111.751 20.39H101.401C101.481 21.27 101.841 21.97 102.481 22.49C103.141 23.01 103.941 23.27 104.881 23.27C105.321 23.27 105.711 23.22 106.051 23.12C106.411 23.02 106.681 22.91 106.861 22.79C107.061 22.65 107.221 22.51 107.341 22.37C107.481 22.23 107.571 22.11 107.611 22.01L107.671 21.86H111.541C111.521 21.98 111.471 22.14 111.391 22.34C111.331 22.54 111.141 22.9 110.821 23.42C110.521 23.92 110.151 24.37 109.711 24.77C109.271 25.15 108.621 25.5 107.761 25.82C106.901 26.14 105.931 26.3 104.851 26.3C102.691 26.3 100.941 25.67 99.6013 24.41C98.2813 23.13 97.6213 21.42 97.6213 19.28C97.6213 17.18 98.2613 15.47 99.5413 14.15ZM108.061 17.81C108.061 17.79 108.061 17.76 108.061 17.72C108.061 16.96 107.761 16.36 107.161 15.92C106.561 15.46 105.791 15.23 104.851 15.23C103.891 15.23 103.101 15.47 102.481 15.95C101.881 16.43 101.521 17.05 101.401 17.81H108.061ZM114.924 6.71H118.794V21.74C118.794 22.12 118.864 22.39 119.004 22.55C119.144 22.69 119.404 22.76 119.784 22.76H120.864V26H119.784C117.924 26 116.644 25.72 115.944 25.16C115.264 24.6 114.924 23.46 114.924 21.74V6.71ZM122.946 19.28C122.946 17.18 123.596 15.48 124.896 14.18C126.196 12.88 127.866 12.23 129.906 12.23C130.126 12.23 130.346 12.24 130.566 12.26C132.206 12.34 133.466 13.01 134.346 14.27V12.5H138.126V27.26C138.126 29 137.776 30.14 137.076 30.68C136.396 31.22 135.126 31.49 133.266 31.49H124.236V28.31H133.266C133.646 28.31 133.906 28.23 134.046 28.07C134.186 27.93 134.256 27.66 134.256 27.26V24.29C133.416 25.47 132.206 26.12 130.626 26.24C130.346 26.26 130.066 26.27 129.786 26.27C127.806 26.27 126.166 25.65 124.866 24.41C123.586 23.15 122.946 21.44 122.946 19.28ZM126.876 19.28C126.876 20.54 127.226 21.51 127.926 22.19C128.646 22.87 129.546 23.21 130.626 23.21C131.746 23.21 132.646 22.87 133.326 22.19C134.006 21.51 134.346 20.53 134.346 19.25C134.346 17.87 134.006 16.87 133.326 16.25C132.666 15.61 131.766 15.29 130.626 15.29C129.526 15.29 128.626 15.64 127.926 16.34C127.226 17.02 126.876 18 126.876 19.28ZM141.653 12.5H145.433V14.51C146.233 13.17 147.443 12.5 149.063 12.5H150.653V15.74H149.153C147.573 15.74 146.573 16.13 146.153 16.91C145.733 17.67 145.523 19.33 145.523 21.89V26H141.653V12.5ZM152.636 22.28C152.636 19.32 155.846 17.68 162.266 17.36H162.536V17.15C162.536 15.75 161.636 15.05 159.836 15.05C159.076 15.05 158.476 15.17 158.036 15.41C157.616 15.65 157.376 15.89 157.316 16.13L157.226 16.49H153.296C153.296 16.37 153.316 16.22 153.356 16.04C153.396 15.84 153.546 15.5 153.806 15.02C154.066 14.52 154.406 14.08 154.826 13.7C155.246 13.32 155.896 12.98 156.776 12.68C157.656 12.36 158.686 12.2 159.866 12.2C161.986 12.2 163.586 12.64 164.666 13.52C165.766 14.38 166.316 15.58 166.316 17.12L166.346 21.05V21.8C166.346 22.16 166.396 22.41 166.496 22.55C166.616 22.69 166.826 22.76 167.126 22.76H167.516V26H167.096C165.876 26 164.946 25.89 164.306 25.67C163.666 25.43 163.206 25 162.926 24.38C161.866 25.66 160.196 26.3 157.916 26.3C156.156 26.3 154.836 25.92 153.956 25.16C153.076 24.4 152.636 23.44 152.636 22.28ZM156.596 22.19C156.596 22.59 156.786 22.9 157.166 23.12C157.546 23.34 158.026 23.46 158.606 23.48C158.646 23.48 158.686 23.48 158.726 23.48C159.646 23.48 160.506 23.22 161.306 22.7C162.126 22.18 162.536 21.45 162.536 20.51V19.73C161.736 19.79 161.086 19.85 160.586 19.91C160.106 19.97 159.506 20.08 158.786 20.24C158.066 20.4 157.516 20.65 157.136 20.99C156.776 21.31 156.596 21.71 156.596 22.19ZM174.272 12.5V14.42C175.132 13 176.472 12.26 178.292 12.2C178.372 12.2 178.462 12.2 178.562 12.2C180.982 12.2 182.612 13.03 183.452 14.69C184.492 13.09 186.032 12.26 188.072 12.2C188.192 12.2 188.302 12.2 188.402 12.2C190.402 12.2 191.832 12.75 192.692 13.85C193.552 14.93 193.982 16.54 193.982 18.68V26H190.112V18.68C190.112 17.56 189.882 16.71 189.422 16.13C188.982 15.55 188.362 15.26 187.562 15.26C186.342 15.26 185.472 15.63 184.952 16.37C184.452 17.11 184.202 18.26 184.202 19.82V26H180.332V18.68C180.332 17.56 180.102 16.71 179.642 16.13C179.202 15.55 178.582 15.26 177.782 15.26C176.562 15.26 175.692 15.63 175.172 16.37C174.672 17.11 174.422 18.26 174.422 19.82V26H170.552V12.5H174.272Z" fill="white"/>
<defs>
<linearGradient id="paint0_linear_39_107" x1="15" y1="2" x2="15" y2="32" gradientUnits="userSpaceOnUse">
<stop stop-color="#877EFF"/>
<stop offset="0.461458" stop-color="#685DFF"/>
<stop offset="1" stop-color="#3121FF"/>
</linearGradient>
</defs>
</svg>
